<svg width="180" height="81" viewBox="0 0 180 81" fill="none" xmlns="http://www.w3.org/2000/svg">
<g clip-path="url(#clip0)">
<path fill-rule="evenodd" clip-rule="evenodd" d="M10.145 54.992C6.36919 59.5735 4.65466 63.7574 5.19457 67.3164C5.73449 70.8753 8.50569 73.6565 13.2667 75.5687C18.0167 77.4764 24.6554 78.478 32.7265 78.5476C48.8627 78.6867 70.6121 75.1007 94.1424 67.743C117.673 60.3853 138.491 50.6608 153.125 40.9C160.445 36.0178 166.192 31.1433 169.959 26.5723C173.735 21.9908 175.45 17.8069 174.91 14.2479C174.37 10.689 171.599 7.90776 166.838 5.99562C162.088 4.08786 155.449 3.08633 147.378 3.01674C131.242 2.87759 109.492 6.46362 85.9621 13.8213C62.4318 21.179 41.6137 30.9035 26.9793 40.6643C19.6594 45.5465 13.9122 50.421 10.145 54.992ZM26.553 39.8086C41.2963 29.9751 62.2132 20.2118 85.8121 12.8326C109.411 5.45348 131.261 1.84384 147.518 1.98402C155.643 2.05408 162.399 3.06096 167.282 5.02207C172.154 6.9788 175.254 9.92688 175.864 13.9495C176.475 17.9721 174.509 22.5042 170.645 27.1926C166.773 31.8914 160.92 36.8408 153.551 41.7557C138.808 51.5892 117.891 61.3525 94.2924 68.7317C70.6935 76.1108 48.843 79.7205 32.5866 79.5803C24.4615 79.5102 17.7056 78.5033 12.8227 76.5422C7.95065 74.5855 4.8504 71.6374 4.24014 67.6148C3.62988 63.5922 5.59533 59.0601 9.45923 54.3717C13.3318 49.6729 19.1841 44.7235 26.553 39.8086Z" fill="#A9E1C8"/>
<path fill-rule="evenodd" clip-rule="evenodd" d="M9.47766 42.0967C5.44232 46.5089 3.4496 50.8852 3.77944 55.0081C4.10928 59.131 6.74122 62.7446 11.3683 65.7285C15.9929 68.7108 22.5543 71.024 30.6001 72.5586C46.6872 75.6268 68.5998 75.5616 92.518 71.6176C116.436 67.6735 137.789 60.6044 152.972 52.3797C160.566 48.2663 166.591 43.8775 170.625 39.4675C174.66 35.0553 176.653 30.679 176.323 26.5561C175.993 22.4333 173.361 18.8196 168.734 15.8357C164.109 12.8535 157.548 10.5402 149.502 9.00562C133.415 5.93738 111.502 6.0026 87.5842 9.94665C63.666 13.8907 42.3136 20.9598 27.13 29.1845C19.5361 33.2979 13.5109 37.6867 9.47766 42.0967ZM26.7228 28.3006C42.0347 20.0064 63.5037 12.9075 87.5044 8.94983C111.505 4.99217 133.536 4.91805 149.759 8.01221C157.868 9.55887 164.554 11.9022 169.31 14.9694C174.064 18.035 176.947 21.8637 177.309 26.3934C177.672 30.9232 175.468 35.5906 171.322 40.1238C167.174 44.6593 161.033 49.1177 153.379 53.2636C138.068 61.5578 116.599 68.6567 92.5978 72.6144C68.597 76.572 46.566 76.6461 30.343 73.552C22.2338 72.0053 15.5486 69.662 10.7923 66.5948C6.03843 63.5292 3.15515 59.7005 2.79276 55.1708C2.43037 50.641 4.63393 45.9736 8.77987 41.4404C12.9279 36.9049 19.069 32.4465 26.7228 28.3006Z" fill="#29B475"/>
</g>
<defs>
<clipPath id="clip0">
<rect width="180" height="81" fill="white"/>
</clipPath>
</defs>
</svg>
